<svg width="24" height="24" viewBox="0 0 24 24" fill="none" xmlns="http://www.w3.org/2000/svg">
  <path d="M12 24C18.6274 24 24 18.6274 24 12C24 5.37258 18.6274 0 12 0C5.37258 0 0 5.37258 0 12C0 18.6274 5.37258 24 12 24Z" fill="#0052FF"/>
  <path d="M12.3755 5.25H8.06107L5.25 8.06107V12.3755L8.06107 15.1866H12.3755L15.1866 12.3755V8.06107L12.3755 5.25Z" fill="white"/>
  <path d="M15.9389 8.81342L12.375 5.25H16.6895L19.5005 8.06107V12.3755L16.6895 15.1866H12.375L15.9389 8.81342Z" fill="white" fill-opacity="0.65"/>
  <path d="M8.06107 15.1865L5.25 18.7505V16.125L6.75 14.625L8.06107 15.1865Z" fill="white" fill-opacity="0.32"/>
  <path d="M8.06107 15.1866H12.3755L15.9394 18.7505H11.625L8.06107 15.1866Z" fill="white" fill-opacity="0.65"/>
  <path d="M15.9394 18.7505L18.7505 15.9394V11.625L15.9394 14.4361V18.7505Z" fill="white" fill-opacity="0.32"/>
  <path d="M19.5005 8.06107L16.6895 5.25H11.625L15.9394 9.56453V13.8789L19.5005 17.4399V12.3755L16.6895 9.56453L19.5005 8.06107Z" fill="white" fill-opacity="0.48"/>
  <path d="M5.99982 18.0002L8.06107 15.1866L5.25 12.3755V16.6899L5.99982 18.0002Z" fill="white" fill-opacity="0.48"/>
</svg>